<?xml version="1.0" standalone="no"?>

<!DOCTYPE svg PUBLIC "-//W3C//DTD SVG 20010904//EN"

 "http://www.w3.org/TR/2001/REC-SVG-20010904/DTD/svg10.dtd">

<svg version="1.0" xmlns="http://www.w3.org/2000/svg"

 width="831.000000pt" height="889.000000pt" viewBox="0 0 831.000000 889.000000"

 preserveAspectRatio="xMidYMid meet">

<path fill="#fefefe" stroke="none" d="
M0 444

L0 0

L415 0

L831 0

L831 444

L831 889

L415 889

L0 889

L0 444

Z

"/>

<path fill="#eaeaea" stroke="none" d="
M382 800

C377 800 369 799 364 798

C359 797 352 796 348 795

C344 795 334 793 326 791

C319 788 312 786 311 786

C310 786 293 780 289 779

C288 778 286 777 285 777

C279 776 241 757 239 755

C238 754 236 753 234 752

C229 749 216 741 208 734

C179 714 151 686 131 659

C129 657 128 655 127 655

C127 654 126 654 126 653

C126 653 125 650 123 648

C121 645 118 641 117 639

C115 636 113 632 111 630

C108 625 107 623 96 601

C89 588 82 570 81 567

C81 565 79 561 77 556

C74 546 73 542 72 539

C72 537 70 531 69 524

C65 509 64 503 62 487

C62 480 61 474 60 473

C59 471 59 417 60 415

C61 413 64 393 64 390

C64 387 67 371 69 362

C70 357 72 351 72 348

C73 344 75 338 77 333

C79 328 81 323 81 321

C82 316 95 287 105 268

C109 261 115 251 121 243

C122 242 124 239 125 237

C126 235 129 232 130 230

C131 228 136 222 141 217

C155 199 178 176 198 160

C202 158 206 155 206 154

C207 153 208 153 208 153

C209 153 210 151 212 150

C214 149 217 146 220 145

C222 143 227 140 230 138

C240 131 279 112 291 108

C294 107 300 105 304 104

C309 102 316 100 319 99

C322 98 331 96 338 95

C344 93 354 91 359 91

C388 87 392 86 420 87

C452 87 470 89 494 95

C502 97 510 99 512 100

C514 100 519 102 523 103

C527 104 533 106 536 107

C555 114 590 131 602 140

C604 141 610 145 615 148

C637 163 667 191 685 213

C691 219 695 225 696 225

C696 225 697 225 697 226

C697 227 697 228 699 229

C701 232 715 251 715 252

C715 253 715 254 717 256

C721 261 741 299 741 302

C740 302 742 305 744 309

C747 317 757 347 758 352

C758 354 760 360 761 366

C765 381 768 398 768 406

C768 409 768 413 768 413

C770 414 770 474 769 475

C768 475 767 480 767 486

C767 491 765 502 763 511

C762 518 760 527 759 530

C758 537 750 563 746 572

C745 576 742 582 741 585

C740 588 738 593 737 595

C736 597 733 602 732 605

C731 608 729 611 729 611

C728 612 726 616 724 620

C721 624 718 629 717 631

C716 633 712 639 709 644

C684 683 645 721 604 747

C600 749 596 752 596 752

C595 752 594 752 594 753

C591 755 567 768 555 773

C532 782 497 793 482 795

C478 796 469 797 462 799

C451 800 444 801 420 801

C403 801 386 801 382 800

Z

M449 769

C470 768 491 763 511 756

C518 754 524 752 526 752

C528 751 531 750 534 749

C536 748 541 745 545 744

C556 739 584 724 587 721

C588 720 590 719 592 717

C597 715 608 708 613 703

C634 686 649 671 663 654

C666 651 669 647 671 645

C672 644 674 642 674 641

C674 640 674 640 674 640

C675 640 678 636 680 632

C683 627 687 623 688 621

C689 620 690 619 690 618

C690 617 690 616 691 615

C693 613 703 594 709 581

C716 566 722 551 724 542

C725 538 728 530 729 524

C731 518 733 512 733 511

C733 510 733 505 734 501

C739 477 741 438 738 413

C735 389 731 367 726 353

C725 348 724 343 724 343

C723 341 717 325 716 324

C716 324 716 322 716 321

C715 319 700 286 698 286

C698 285 698 285 698 284

C698 284 695 279 689 269

C685 262 670 242 667 238

C665 236 663 234 663 234

C663 232 627 195 626 195

C625 195 624 194 623 193

C619 188 592 169 573 158

C564 153 551 147 535 140

C518 133 487 124 461 120

C446 117 413 116 390 117

C373 118 368 119 337 126

C328 128 304 136 291 141

C274 148 252 160 243 166

C241 168 239 169 238 169

C237 170 222 180 217 184

C199 199 180 217 165 235

C155 246 143 263 141 268

C141 269 140 271 139 271

C139 271 139 271 139 272

C139 273 138 274 138 273

C137 273 136 276 135 278

C133 281 131 285 129 289

C123 298 108 333 107 338

C107 340 105 346 103 352

C101 358 99 366 99 369

C98 372 97 378 96 384

C91 405 90 416 90 444

C90 472 91 483 96 504

C97 509 98 515 98 517

C99 521 100 528 104 539

C105 543 107 548 107 549

C107 551 109 556 113 563

C114 565 115 569 115 570

C115 572 117 575 119 579

C120 582 122 586 124 590

C127 597 134 609 138 615

C151 636 154 640 158 644

C159 645 160 646 160 646

C160 646 160 647 161 648

C162 649 165 653 169 657

C177 667 196 686 208 696

C213 700 218 704 218 704

C219 706 231 714 236 717

C238 718 241 720 243 722

C251 728 289 747 307 753

C335 762 358 768 383 770

C391 770 399 771 400 771

C404 772 437 771 449 769

Z

M478 593

C467 588 455 576 448 561

C447 558 446 557 445 557

C444 557 440 559 434 562

C429 564 420 568 415 569

C407 572 404 572 392 572

C377 572 377 572 372 569

C356 560 348 543 339 497

C334 474 330 464 327 458

C322 452 320 450 312 450

L305 450

L304 456

C302 475 295 515 293 523

C287 555 275 576 260 584

C255 586 254 586 242 586

L229 586

L220 582

C202 573 189 556 181 530

C168 492 170 448 187 410

C206 363 244 328 291 313

C309 307 316 306 341 306

C360 306 364 306 371 308

C395 315 411 326 421 341

C428 351 431 360 431 373

C431 389 425 402 413 416

C397 431 376 440 344 445

L340 446

L346 449

C349 450 354 454 357 457

C368 468 373 479 379 507

C384 525 387 533 391 537

C393 539 395 539 399 539

C407 539 418 535 428 529

C436 524 436 524 435 521

C430 492 428 459 430 437

C438 365 475 311 528 295

C540 291 566 290 582 293

C604 297 621 305 635 319

C644 328 649 336 653 348

C656 355 656 357 656 371

C656 385 656 387 653 394

C643 425 615 448 577 456

C571 458 566 459 566 459

C566 459 565 471 565 485

C564 513 562 523 558 537

C549 566 531 587 510 594

C500 596 486 596 478 593

Z

M504 559

C508 557 512 552 515 548

C521 538 526 514 527 491

C527 484 528 474 528 469

L528 460

L524 459

C514 454 502 448 499 445

C494 440 493 437 494 426

C494 417 496 414 499 414

C500 414 505 416 511 418

C516 421 522 424 524 424

L527 425

L527 419

C527 405 530 386 535 376

C541 365 549 360 560 360

C571 360 577 363 577 371

C577 374 575 384 572 394

C568 414 566 424 567 424

C567 424 571 423 576 421

C603 414 621 396 621 374

C621 357 611 342 594 334

C583 329 577 327 561 327

C543 326 537 327 526 333

C499 346 479 379 472 425

C470 439 469 474 470 494

C473 529 478 549 488 557

C491 560 492 561 497 561

C499 561 503 560 504 559

Z

M250 552

C254 551 257 548 260 542

C264 535 266 528 268 519

C269 513 273 476 275 455

L276 447

L271 445

C263 441 256 436 254 433

C252 429 252 422 254 418

C256 414 256 414 262 413

C265 413 270 413 273 413

L279 413

L280 407

C282 391 286 381 293 375

C297 371 301 370 308 371

C319 372 320 381 314 402

C312 409 310 416 310 417

L309 421

L320 420

C359 418 385 404 391 384

C394 373 392 363 384 355

C372 342 353 337 327 339

C290 343 259 361 239 391

C228 408 219 428 215 450

C212 465 211 493 212 507

C216 530 226 547 239 552

C245 554 246 554 250 552

Z

"/>

<path fill="#dadada" stroke="none" d="
M387 801

C366 799 366 798 338 793

C331 792 311 786 300 782

C279 775 276 774 274 773

C273 772 265 768 257 764

C249 761 242 757 240 756

C239 755 236 753 234 752

C227 748 205 733 193 723

C180 713 152 686 152 684

C152 683 151 682 150 682

C148 681 135 664 127 653

C124 649 122 645 121 645

C120 644 117 639 114 634

C111 628 107 622 106 621

C104 617 93 595 89 586

C88 583 86 578 84 575

C83 572 81 569 81 568

C81 567 80 562 78 556

C75 550 73 544 73 542

C73 541 71 533 69 526

C67 518 65 508 65 504

C64 499 63 489 62 482

C60 463 60 424 62 406

C63 399 64 389 65 385

C65 380 67 370 69 362

C71 354 73 347 73 345

C73 344 75 338 78 332

C80 326 82 320 82 319

C83 314 106 265 109 263

C109 262 110 261 110 260

C111 259 113 255 116 251

C118 246 122 241 123 240

C125 238 126 235 126 235

C126 234 127 234 127 233

C128 233 131 230 134 225

C151 202 176 177 200 159

C205 155 211 151 213 149

C217 146 234 136 235 136

C235 136 237 134 240 133

C243 130 256 124 275 115

C282 112 308 102 313 101

C314 101 321 99 328 97

C340 94 343 93 363 90

C384 87 394 86 422 87

C440 87 453 88 459 89

C464 90 472 91 476 91

C488 93 520 101 534 107

C542 110 562 118 569 121

C580 127 592 134 599 138

C603 141 607 144 609 145

C615 148 636 164 647 174

C665 189 678 203 700 232

C704 236 714 250 714 251

C714 251 715 254 717 256

C719 259 722 264 724 269

C726 273 728 276 729 277

C729 277 730 279 731 281

C732 283 734 288 736 292

C738 296 740 300 740 301

C740 301 742 305 743 309

C750 324 761 362 765 385

C770 418 770 470 765 503

C761 524 751 562 742 582

C740 588 731 607 729 610

C729 610 727 615 724 619

C722 623 720 627 719 628

C718 629 716 633 713 637

C711 642 708 646 707 647

C706 647 706 648 706 649

C706 650 705 651 705 651

C704 651 704 651 704 651

C704 652 703 653 702 655

C700 656 695 662 690 669

C680 683 660 703 647 714

C631 728 608 745 597 750

C595 752 592 754 590 755

C585 758 553 774 547 776

C544 777 541 778 540 778

C537 780 522 785 518 786

C516 787 508 789 501 791

C494 793 483 795 478 796

C472 797 463 798 458 799

C449 801 395 802 387 801

Z

M442 770

C482 767 522 756 559 737

C570 732 585 723 588 721

C589 720 591 718 593 717

C601 713 617 700 628 690

C652 669 668 651 681 632

C683 628 686 624 687 623

C688 621 689 619 698 603

C704 592 715 569 716 566

C716 566 718 561 720 556

C722 551 724 545 724 543

C725 541 727 533 729 527

C731 520 733 512 733 510

C733 507 734 503 735 500

C737 484 739 471 739 451

C740 428 739 412 735 394

C734 388 733 381 733 379

C732 373 730 365 727 356

C726 353 725 349 725 348

C725 345 722 337 718 328

C717 324 716 321 716 321

C717 322 698 283 696 281

C695 280 693 276 691 273

C690 269 687 266 686 265

C686 264 683 260 681 257

C670 241 657 224 641 210

C626 194 622 191 598 174

C593 170 578 160 577 161

C577 161 574 159 571 157

C566 154 543 142 542 142

C541 142 538 141 536 140

C530 137 499 127 494 126

C492 126 487 125 484 124

C462 119 451 117 422 117

C391 116 380 117 357 122

C349 123 340 125 337 126

C331 127 303 136 295 140

C291 141 288 143 288 143

C286 142 263 154 261 155

C261 156 257 158 253 160

C243 166 226 177 214 186

C210 190 206 193 205 194

C202 196 179 219 170 228

C168 231 166 234 166 234

C166 235 165 235 165 235

C163 235 141 266 136 277

C135 278 132 282 131 285

C124 297 107 334 106 341

C106 342 104 348 102 355

C99 367 97 373 97 374

C97 374 97 379 96 384

C91 406 90 415 90 444

C90 472 91 482 95 504

C96 509 97 514 97 515

C97 517 100 527 103 536

C104 541 106 545 106 546

C106 548 108 553 110 558

C112 562 114 568 115 570

C118 578 136 614 138 614

C138 615 139 615 139 616

C139 617 139 618 140 618

C140 618 141 618 141 619

C141 620 156 643 160 647

C161 649 165 652 167 655

C178 669 189 680 209 697

C220 707 234 716 250 726

C258 731 281 743 284 744

C286 744 290 746 294 748

C298 750 303 752 305 752

C307 753 313 755 318 756

C326 759 340 763 359 767

C369 769 396 771 413 771

C418 771 432 771 442 770

Z

M480 594

C474 592 465 585 460 579

C457 575 447 560 446 557

C446 557 442 558 437 560

C420 569 405 573 390 573

C377 573 373 571 364 563

C353 551 348 539 339 498

C333 471 331 464 327 458

C323 452 320 450 312 450

L305 450

L302 469

C297 505 293 525 290 537

C283 562 273 576 260 583

C253 587 238 588 229 585

C205 578 186 555 178 519

C168 480 173 437 192 399

C208 366 239 336 271 321

C294 310 311 306 336 306

C362 305 375 308 394 317

C439 340 444 391 405 423

C390 434 373 441 344 445

L340 446

L345 448

C352 452 363 464 368 472

C373 482 375 488 380 507

C384 526 386 532 391 536

C393 539 394 539 399 539

C408 539 418 535 430 528

C435 524 436 524 435 521

C430 493 430 490 430 463

C430 438 430 434 432 422

C444 356 479 310 528 295

C537 292 538 292 559 292

C578 292 581 292 589 294

C630 305 655 331 656 367

C657 391 649 411 630 429

C615 443 596 453 571 457

C568 458 565 459 565 460

C565 479 563 513 562 520

C557 550 541 577 521 589

C509 595 491 598 480 594

Z

M506 558

C514 554 520 540 524 521

C526 511 527 492 528 474

L528 460

L526 459

C499 448 494 443 494 428

C494 419 495 416 498 414

C500 413 502 414 511 418

C516 421 522 424 524 424

L526 425

L527 413

C529 385 538 365 551 361

C557 359 566 359 570 361

C574 363 577 367 577 372

C577 374 575 384 572 394

C570 404 567 415 567 418

L566 424

L570 423

C572 423 577 421 582 420

C605 412 619 397 620 378

C622 358 612 343 594 334

C583 329 577 327 560 327

C538 326 530 328 515 339

C495 353 479 383 472 422

C470 434 470 438 470 465

C470 498 471 512 475 530

C478 545 483 554 489 559

C493 561 501 561 506 558

Z

M252 552

C259 548 264 538 267 522

C269 515 273 479 275 455

L276 447

L268 443

C257 437 253 433 253 427

C252 423 254 416 256 415

C256 414 262 413 268 413

L279 412

L280 407

C283 382 292 369 308 371

C319 372 320 380 314 404

C311 412 310 419 310 420

C310 421 321 421 333 419

C362 415 381 405 389 390

C399 369 388 349 362 342

C342 336 314 339 292 348

C250 364 221 406 213 462

C211 477 211 505 214 517

C219 537 229 550 241 553

C246 554 249 554 252 552

Z

"/>

<path fill="#cacaca" stroke="none" d="
M388 801

C359 798 331 793 306 784

C279 775 263 768 238 754

C224 746 198 728 187 719

C178 710 145 677 139 670

C128 655 114 635 109 625

C107 622 106 620 105 620

C105 619 90 588 86 579

C79 561 66 517 65 506

C65 503 64 496 63 491

C60 472 59 450 60 434

C61 419 63 394 64 391

C64 390 65 386 65 383

C65 379 67 371 69 364

C70 358 72 350 73 347

C74 340 83 316 86 310

C87 307 88 303 89 301

C97 283 116 248 122 242

C123 240 127 235 131 230

C141 216 148 207 162 193

C181 174 194 163 209 153

C212 151 215 148 216 148

C216 147 221 144 225 142

C229 139 235 135 238 133

C246 128 279 112 285 111

C286 111 288 110 290 109

C297 106 310 102 311 102

C312 102 319 100 326 98

C334 95 343 93 347 93

C351 92 360 91 368 89

C384 87 429 86 446 87

C481 91 512 98 540 109

C560 117 569 121 573 124

C574 125 577 126 580 127

C583 129 587 131 590 133

C593 135 596 136 596 136

C596 136 599 138 602 140

C606 143 609 144 609 144

C610 144 612 146 614 148

C616 150 620 153 624 155

C649 173 681 204 698 228

C700 232 702 235 703 235

C703 235 704 235 704 235

C703 236 705 239 707 242

C710 244 712 248 713 249

C713 251 715 254 717 256

C725 268 746 313 748 321

C748 322 750 328 752 333

C756 343 758 352 763 376

C772 418 771 482 760 524

C759 531 757 537 757 539

C757 541 755 547 752 554

C750 560 748 566 748 567

C747 573 729 612 722 624

C713 638 709 644 708 645

C707 646 705 649 703 653

C690 671 664 699 644 717

C632 727 610 743 593 753

C582 760 548 777 545 777

C545 777 543 777 541 778

C532 782 500 792 488 794

C448 801 442 802 413 801

C401 801 389 801 388 801

Z

M458 769

C463 768 472 767 477 765

C482 764 489 763 493 762

C501 760 530 750 541 746

C566 735 591 720 617 701

C624 695 651 669 662 657

C665 653 675 640 681 631

C684 626 687 622 688 621

C690 619 690 618 690 617

C690 617 692 613 695 610

C700 601 715 570 717 563

C718 560 721 554 722 550

C723 546 725 542 725 541

C725 539 727 533 729 526

C732 514 734 507 734 505

C734 505 734 501 735 497

C741 467 741 426 736 396

C735 391 734 385 734 383

C733 378 730 364 728 356

C726 353 725 349 725 347

C725 344 720 332 719 331

C719 330 718 328 717 325

C715 317 699 285 696 281

C695 280 693 276 692 273

C689 268 685 262 684 261

C683 260 683 259 682 258

C681 257 679 254 676 250

C656 221 630 196 603 177

C599 175 597 173 597 172

C595 171 564 153 554 148

C499 122 438 111 382 118

C365 119 335 126 320 130

C297 138 271 149 260 156

C257 158 254 160 254 160

C253 160 236 170 235 171

C234 172 231 174 227 177

C213 186 203 195 186 211

C169 229 159 240 149 256

C146 260 144 263 143 264

C141 265 113 317 114 320

C114 321 112 325 110 330

C102 350 93 389 90 417

C88 440 90 474 94 497

C95 501 96 508 96 511

C97 514 99 522 100 528

C102 533 104 541 105 545

C107 549 108 553 108 554

C109 555 111 560 113 565

C118 579 130 603 139 618

C148 632 163 651 173 662

C176 666 179 669 180 670

C182 673 210 698 216 703

C219 705 225 710 230 713

C234 716 239 719 241 720

C246 725 283 745 286 745

C286 745 290 746 294 748

C303 752 326 760 336 762

C340 763 347 764 351 765

C367 769 375 770 388 770

C407 772 446 771 458 769

Z

M481 594

C474 592 466 586 461 580

C456 575 447 559 447 557

C447 556 443 557 438 560

C421 568 405 573 390 572

C381 572 379 572 374 570

C367 566 359 558 354 549

C349 538 344 524 338 492

C332 467 328 456 321 452

C319 451 316 450 312 450

L305 450

L301 479

C294 524 290 541 282 558

C273 578 261 587 243 587

C231 587 223 584 213 577

C202 570 195 561 187 546

C170 510 168 466 182 424

C186 410 197 388 205 377

C215 363 235 343 249 334

C267 322 287 313 309 308

C318 306 322 306 341 306

C361 306 362 306 372 309

C404 318 425 337 430 362

C432 371 432 375 430 384

C427 397 418 412 405 422

C393 432 372 441 355 443

C350 444 345 445 344 445

L340 446

L346 449

C363 459 372 475 379 505

C383 523 386 531 390 535

C394 539 398 540 406 538

C413 537 429 529 433 525

L436 524

L434 511

C430 492 429 476 430 454

C431 419 437 394 451 365

C466 334 485 315 511 302

C529 293 534 292 560 292

C580 292 582 292 591 295

C597 296 606 300 612 303

C630 312 641 322 649 339

C661 363 659 391 643 414

C629 435 605 450 573 457

C569 458 565 459 565 459

C564 510 563 522 557 539

C554 548 548 561 543 568

C535 579 522 590 510 593

C502 596 487 596 481 594

Z

M507 558

C520 548 527 520 528 476

L528 460

L518 456

C498 447 494 442 494 428

C494 419 495 416 498 414

C500 414 502 414 512 419

C518 422 524 424 525 424

C526 424 526 423 527 414

C529 378 541 360 560 360

C567 360 571 361 574 365

C577 369 577 372 572 394

C570 404 567 415 567 418

L566 424

L570 423

C592 419 610 407 617 392

C620 385 620 384 620 374

C620 360 618 354 609 345

C605 340 601 337 595 334

C582 328 577 327 557 327

C541 327 538 327 533 329

C519 334 505 346 496 359

C482 379 473 407 470 438

C469 453 470 495 472 513

C475 538 481 553 490 559

C493 561 503 561 507 558

Z

M255 549

C260 545 264 536 267 524

C269 516 273 485 275 455

L276 447

L269 443

C257 437 252 432 253 425

C253 423 253 419 254 418

C256 414 256 414 262 413

C265 413 271 413 274 413

L279 413

L281 403

C284 385 289 376 297 372

C305 369 314 371 317 376

C318 381 318 390 314 402

C312 408 310 415 310 417

L309 421

L315 421

C324 421 343 418 352 415

C370 410 384 400 390 389

C392 385 392 382 392 375

C392 367 392 365 390 362

C385 352 374 345 360 341

C351 339 328 339 315 341

C305 343 291 347 283 351

C251 367 227 400 217 442

C212 459 211 472 212 492

C212 511 214 521 219 532

C228 550 245 559 255 549

Z

"/>

<path fill="#bbbbbb" stroke="none" d="
M388 801

C342 796 311 788 275 773

C266 769 247 759 238 754

C234 752 230 750 230 750

C229 750 228 748 226 747

C224 745 218 741 213 738

C202 730 196 726 186 717

C177 710 145 678 146 677

C146 676 144 675 143 673

C140 671 131 659 124 650

C122 646 120 643 119 643

C119 642 119 642 119 641

C119 641 117 639 115 636

C109 626 95 601 88 583

C84 576 75 548 74 545

C74 544 72 537 70 529

C68 522 66 512 66 508

C65 504 64 496 63 491

C58 454 59 419 67 374

C69 358 82 318 88 304

C93 292 104 271 106 268

C107 266 111 260 114 254

C117 249 121 243 122 242

C123 241 126 236 130 231

C141 215 147 208 168 188

C191 165 208 152 237 135

C246 129 279 113 285 111

C286 111 291 109 296 107

C301 105 307 103 309 102

C310 102 318 100 324 98

C331 96 340 94 343 94

C346 93 354 92 361 91

C382 87 394 86 422 87

C448 87 453 88 478 92

C497 95 526 103 538 109

C540 110 543 111 545 111

C546 111 550 113 555 115

C559 117 564 119 566 120

C568 121 571 122 571 123

C572 124 576 126 580 127

C583 129 588 132 591 133

C593 135 595 136 596 136

C597 137 611 145 616 149

C643 169 652 177 668 194

C680 206 694 223 701 233

C703 236 706 240 707 242

C710 245 722 265 729 278

C735 289 747 316 748 321

C748 322 750 328 752 333

C754 339 756 345 756 347

C756 349 757 351 757 352

C758 354 765 385 765 389

C765 389 766 397 767 405

C770 424 770 465 767 483

C766 489 765 497 765 500

C764 507 762 518 759 530

C758 535 756 540 756 541

C756 543 754 549 752 555

C750 560 748 566 748 568

C747 571 745 575 741 585

C739 587 738 590 739 590

C739 591 724 619 723 621

C722 621 722 622 722 623

C722 624 709 644 708 645

C707 646 705 649 703 653

C693 667 682 680 662 699

C644 718 629 730 615 739

C612 741 608 744 605 746

C602 748 600 749 599 749

C599 749 596 751 593 753

C588 756 569 766 557 772

C545 777 515 788 499 791

C491 793 470 797 456 800

C448 801 395 802 388 801

Z

M458 769

C464 768 473 766 479 765

C485 764 491 763 492 763

C494 763 520 754 528 751

C547 743 561 737 571 731

C574 729 577 728 577 728

C577 728 581 726 584 723

C588 721 592 719 593 718

C595 717 602 712 612 704

C643 681 672 648 694 611

C701 599 715 572 718 563

C719 559 721 553 722 549

C724 545 726 540 726 539

C726 537 728 531 729 525

C743 476 743 408 729 361

C727 356 726 351 726 350

C726 347 721 333 719 331

C719 330 718 328 718 326

C716 319 698 281 695 280

C695 279 694 277 692 274

C682 255 654 221 634 202

C623 192 596 171 590 168

C588 167 582 163 578 161

C560 150 530 137 507 129

C488 124 458 118 435 116

C393 113 341 121 297 139

C277 146 244 164 231 174

C229 176 222 181 216 185

C207 192 182 213 182 215

C182 216 178 219 175 223

C165 233 145 260 137 274

C133 281 113 319 113 321

C113 323 110 330 109 331

C108 333 101 358 98 369

C96 380 92 405 91 417

C88 441 89 470 94 494

C95 501 96 508 96 510

C96 512 98 520 100 527

C102 533 104 541 105 544

C106 547 107 552 108 554

C109 556 111 560 112 563

C118 580 135 612 147 630

C161 650 166 656 185 674

C204 694 212 701 234 716

C251 727 270 738 293 748

C303 752 331 761 338 763

C341 763 346 764 351 765

C367 769 375 770 388 770

C407 772 446 771 458 769

Z

M481 594

C475 592 472 590 466 585

C460 580 449 565 447 559

L446 556

L439 559

C422 568 405 572 390 572

C381 572 379 572 374 569

C358 562 350 545 341 507

C334 474 332 468 329 461

C324 452 321 450 312 450

L305 450

L302 469

C294 527 289 545 280 563

C275 572 264 582 257 584

C250 587 237 587 228 585

C203 577 183 550 175 509

C172 494 172 465 175 450

C185 394 220 346 269 322

C306 304 352 300 383 313

C395 317 403 322 411 330

C425 343 431 356 431 374

C431 381 430 384 428 391

C421 409 407 424 386 434

C377 438 364 442 354 444

C350 444 345 445 344 445

L340 446

L347 449

C355 455 364 464 369 475

C373 484 375 490 380 512

C384 528 388 536 393 538

C399 541 409 539 421 533

C427 530 432 527 433 526

L436 524

L434 511

C428 475 428 436 436 407

C447 363 468 329 499 309

C506 304 521 297 530 294

C541 291 566 291 580 293

C626 300 657 331 657 371

C657 385 652 401 644 413

C639 421 627 433 619 438

C606 447 590 453 574 457

C570 458 566 459 566 459

C566 459 565 471 564 485

C563 522 560 536 549 557

C540 574 528 586 514 592

C508 594 505 595 496 595

C488 595 484 595 481 594

Z

M506 558

C519 551 526 526 527 483

C528 470 528 460 528 460

C507 452 497 445 495 438

C493 435 493 421 494 418

C496 413 499 413 511 419

C518 422 524 424 525 425

C526 425 526 424 527 414

C529 378 541 360 560 360

C567 360 571 361 574 365

C577 369 577 372 572 393

C570 404 567 415 567 418

L566 424

L570 423

C591 419 609 408 616 393

C619 386 620 384 620 376

C621 353 609 338 582 329

C576 327 573 327 557 327

C539 327 538 327 531 330

C505 340 486 367 476 406

C471 426 470 434 470 468

C470 500 472 518 476 533

C479 546 484 556 489 559

C493 561 502 561 506 558

Z

M252 552

C258 549 264 538 268 522

C269 515 273 479 275 455

L276 447

L269 443

C257 437 252 432 253 425

C253 423 253 419 254 418

C256 414 256 414 262 413

C265 413 271 413 274 413

L279 413

L280 408

C281 399 283 392 285 387

C289 374 301 368 311 372

C318 374 319 383 314 402

C312 408 310 415 310 417

L309 421

L315 421

C332 421 354 416 367 409

C384 401 391 391 392 376

C393 369 393 368 390 362

C386 354 380 349 371 345

C361 340 354 339 337 339

C313 339 294 344 275 356

C236 380 211 430 211 487

C211 512 215 528 225 542

C232 551 244 556 252 552

Z

"/>

<path fill="#aaaaaa" stroke="none" d="
M388 801

C372 799 363 798 346 794

C328 791 313 787 307 785

C306 784 304 783 302 783

C291 781 253 763 233 751

C202 733 167 703 146 677

C143 673 140 670 139 669

C136 666 115 636 108 625

C101 612 84 575 84 573

C84 572 82 567 79 561

C77 555 75 549 75 547

C75 545 74 543 74 542

C71 536 67 516 66 510

C66 507 65 502 65 500

C59 474 59 414 65 388

C65 385 66 381 66 378

C66 374 68 365 71 357

C73 349 75 341 75 340

C76 337 86 308 88 303

C95 290 105 269 105 269

C106 268 108 265 110 262

C116 250 134 224 143 214

C146 210 181 175 187 169

C191 166 202 158 207 154

C209 152 214 149 219 146

C233 136 247 129 273 116

C278 114 283 111 284 111

C284 111 288 110 293 108

C297 106 304 104 308 103

C327 97 343 93 351 92

C379 87 382 87 416 87

C446 87 449 87 465 90

C474 91 483 93 487 94

C490 94 498 96 505 98

C511 100 519 102 521 102

C524 103 537 108 541 110

C543 111 545 111 545 111

C546 111 551 114 556 116

C561 118 566 120 567 120

C568 120 569 121 571 122

C572 123 576 126 580 128

C590 133 597 137 613 148

C633 162 644 171 662 188

C679 204 687 214 697 228

C701 233 705 239 707 241

C714 250 731 281 739 299

C742 305 744 311 745 313

C746 315 747 317 747 319

C747 320 748 323 749 326

C752 331 754 339 756 347

C757 350 759 358 760 364

C762 371 764 380 765 384

C765 389 766 398 767 405

C770 425 770 465 767 487

C765 496 764 505 764 507

C764 511 755 545 753 553

C750 560 743 579 741 584

C740 587 739 590 739 590

C738 591 726 617 723 620

C722 621 721 623 721 625

C718 630 702 654 692 667

C681 681 644 718 631 728

C608 744 593 754 569 766

C550 775 544 777 524 784

C503 791 485 795 458 799

C449 801 397 802 388 801

Z

M451 770

C463 768 495 762 500 761

C501 760 506 758 511 757

C524 753 543 745 558 738

C571 732 595 717 597 715

C598 714 600 712 603 710

C627 694 653 669 671 645

C684 627 686 625 694 611

C702 599 716 569 717 563

C718 560 719 558 720 557

C721 554 726 541 726 537

C727 535 729 527 731 519

C733 511 735 503 735 500

C735 497 736 490 737 484

C740 468 740 420 737 404

C736 397 735 390 735 388

C734 374 720 328 712 311

C707 302 697 282 695 278

C680 254 668 238 652 221

C626 192 594 168 557 150

C518 130 482 120 435 116

C408 114 371 117 338 125

C331 127 307 135 294 139

C279 145 239 167 232 173

C231 174 225 179 218 183

C203 194 189 208 176 221

C165 233 146 259 139 270

C137 274 134 278 134 279

C132 281 114 318 113 321

C113 323 110 330 110 331

C109 332 104 344 104 347

C104 348 102 355 100 361

C98 368 96 377 96 380

C95 384 94 393 92 401

C90 413 90 419 90 444

C90 467 90 475 92 483

C93 489 94 498 95 504

C97 514 103 537 107 550

C109 554 111 560 112 564

C117 576 140 622 143 625

C144 625 147 629 150 634

C161 650 169 659 186 676

C206 696 220 707 243 722

C253 728 280 743 287 745

C289 746 295 749 301 751

C312 755 332 761 337 762

C340 763 348 764 355 766

C375 770 386 771 414 771

C432 771 443 771 451 770

Z

M481 594

C469 589 458 579 450 564

L446 556

L438 560

C429 564 412 570 403 572

C399 572 392 573 387 572

C379 572 377 571 373 569

C370 567 365 564 363 561

C353 550 348 536 340 500

C334 474 332 466 328 459

C324 452 321 450 312 450

L305 449

L301 479

C294 526 290 542 281 559

C276 570 267 579 260 583

C254 586 253 586 242 586

C229 586 224 585 214 578

C182 557 165 497 176 443

C191 375 243 322 310 308

C319 306 324 306 341 306

C359 306 362 306 370 308

C388 313 403 321 413 332

C425 344 431 356 431 372

C431 384 429 390 424 400

C419 408 405 423 396 428

C383 436 363 443 349 444

C339 445 339 445 345 448

C348 450 353 454 357 458

C367 468 372 479 378 501

C384 528 387 535 393 538

C400 542 415 537 431 527

C435 524 436 524 435 521

C435 519 434 513 433 507

C422 438 436 376 472 333

C487 315 509 300 531 294

C541 292 564 291 577 292

C604 296 628 309 641 326

C669 363 657 415 615 441

C601 449 589 453 568 458

C565 459 565 462 564 476

C564 493 563 516 561 524

C553 560 533 587 507 594

C500 596 487 596 481 594

Z

M506 558

C519 550 526 524 528 478

L529 460

L525 459

C517 456 504 449 500 445

C497 443 495 440 495 438

C493 432 493 422 495 418

C497 413 500 413 511 419

C515 421 521 423 523 424

L526 425

L527 415

C529 379 541 360 560 360

C570 359 577 364 577 371

C577 373 574 383 572 393

C567 417 566 424 568 424

C571 424 587 418 594 415

C611 406 621 391 621 374

C621 347 601 330 566 326

C560 326 552 326 548 326

C513 329 487 359 475 409

C471 426 469 440 470 465

C470 509 474 536 483 552

C488 561 498 564 506 558

Z

M252 552

C258 549 263 539 268 523

C269 516 274 477 275 456

L276 447

L268 443

C260 438 254 433 253 429

C252 425 253 418 255 416

C257 414 259 414 268 413

C274 413 279 412 280 411

C280 411 281 407 281 403

C282 390 288 378 295 374

C299 371 306 370 311 371

C318 374 319 382 314 401

C312 408 310 415 310 417

L309 421

L321 420

C349 419 370 412 382 399

C390 392 393 385 393 375

C393 362 385 352 371 345

C360 340 355 339 338 339

C321 339 311 341 298 345

C258 359 230 392 217 440

C206 483 211 528 229 546

C236 553 245 555 252 552

Z

"/>

<path fill="#939393" stroke="none" d="
M394 800

C383 800 370 799 365 798

C334 793 315 788 294 780

C288 778 282 776 280 775

C259 767 213 740 196 725

C194 724 188 719 183 714

C170 703 153 686 141 672

C132 660 113 633 109 625

C107 622 105 619 105 618

C102 613 85 577 84 574

C84 574 82 568 80 563

C78 557 76 550 75 547

C74 544 72 537 70 531

C69 524 67 517 67 515

C67 512 66 505 64 499

C61 480 60 467 60 444

C60 421 61 409 65 388

C66 382 67 375 67 372

C67 370 69 362 71 355

C73 348 75 340 76 339

C76 337 78 331 80 326

C82 320 84 315 84 315

C84 312 86 308 88 303

C94 290 104 271 105 270

C106 269 108 265 110 261

C112 257 116 250 119 246

C136 222 135 223 148 209

C172 182 201 157 219 146

C221 145 223 143 224 143

C225 142 228 140 230 138

C250 127 256 124 269 118

C292 108 299 105 329 97

C340 94 363 90 380 88

C391 87 400 86 422 87

C451 87 453 88 488 94

C505 97 539 108 556 116

C580 127 592 134 612 147

C633 161 641 168 663 189

C683 210 692 220 701 234

C704 238 707 242 708 243

C712 247 732 283 737 295

C738 298 741 303 742 306

C743 309 745 314 746 317

C747 320 749 325 750 328

C752 331 754 341 757 349

C762 370 762 372 764 379

C764 383 765 393 767 402

C770 424 770 464 767 487

C765 495 764 505 763 509

C763 514 756 544 753 553

C746 573 734 601 721 624

C718 630 699 657 695 664

C672 692 635 726 612 741

C609 743 607 744 606 745

C606 746 582 759 570 765

C556 772 536 780 523 784

C517 786 511 788 510 789

C503 791 468 798 454 799

C441 801 419 801 394 800

Z

M451 770

C461 769 480 765 493 762

C509 759 539 747 559 737

C577 728 589 721 607 708

C633 688 653 668 671 645

C675 640 678 635 679 634

C681 632 686 624 695 610

C698 604 706 589 713 575

C714 571 718 563 720 558

C722 552 724 546 724 544

C727 538 736 497 736 495

C736 495 736 490 737 484

C739 470 740 421 738 407

C737 402 736 396 736 393

C735 383 727 349 722 337

C721 333 719 328 718 326

C712 308 688 264 678 252

C677 250 673 245 669 241

C654 221 636 202 616 187

C611 183 606 179 606 179

C605 178 591 168 585 165

C582 163 580 162 580 161

C579 161 571 157 559 150

C525 132 481 120 435 116

C404 114 358 119 327 128

C311 133 309 134 300 137

C270 149 244 163 219 182

C185 208 160 236 135 276

C129 287 115 316 112 324

C111 326 109 332 108 336

C106 340 104 346 104 348

C103 350 101 358 99 365

C97 372 95 380 95 382

C95 384 94 393 92 401

C90 414 90 420 90 444

C90 469 90 474 92 487

C94 495 95 503 95 504

C95 509 104 544 109 556

C111 559 112 563 112 564

C113 568 129 602 134 609

C134 610 137 614 140 619

C146 629 165 655 175 666

C190 682 211 700 226 710

C229 712 233 715 235 717

C246 725 278 742 298 750

C312 755 333 762 339 763

C341 763 348 765 355 766

C366 768 386 771 398 772

C408 773 439 772 451 770

Z

M482 594

C470 590 458 578 450 564

C448 559 446 556 446 556

C436 562 416 569 405 571

C379 576 364 569 354 546

C348 534 345 525 339 497

C334 473 331 463 326 457

C323 451 319 450 311 450

L305 450

L304 455

C302 469 295 513 293 522

C287 554 275 576 260 583

C255 585 252 586 245 586

C229 587 217 582 204 569

C187 552 177 526 173 493

C170 460 179 421 196 391

C208 371 227 349 246 336

C257 328 278 318 290 314

C309 307 318 306 340 306

C362 306 369 307 384 313

C407 322 424 339 429 359

C431 366 431 381 429 388

C425 402 413 417 399 426

C386 435 364 443 348 444

C344 444 340 445 340 446

C340 446 341 447 344 448

C359 455 371 473 377 500

C386 535 389 540 402 539

C409 538 420 534 429 528

L436 524

L435 517

C431 500 430 486 430 462

C430 436 431 426 437 404

C445 371 458 346 480 325

C494 311 504 304 519 298

C547 288 586 290 613 303

C628 311 642 324 648 338

C654 350 656 357 656 371

C656 385 654 394 647 407

C635 431 608 450 575 456

C566 458 566 458 565 462

C565 463 564 475 564 487

C563 511 562 523 558 536

C548 567 530 588 507 594

C500 596 488 596 482 594

Z

M502 560

C514 557 522 539 526 509

C528 491 529 460 528 460

C527 460 521 457 515 454

C502 448 496 443 495 438

C493 432 493 422 495 418

C496 415 497 415 500 415

C501 415 505 416 508 417

C511 419 516 422 520 423

L526 425

L527 414

C528 391 534 375 543 367

C549 361 553 360 561 360

C566 359 571 361 574 364

C577 368 577 372 572 392

C570 403 567 414 567 417

L566 424

L571 423

C591 420 610 407 617 393

C620 386 620 385 620 374

C620 363 620 362 617 355

C613 346 605 339 595 334

C586 330 579 328 565 326

C546 324 532 327 518 336

C495 351 479 382 472 423

C469 439 469 495 472 514

C476 540 482 555 491 560

C495 562 497 562 502 560

Z

M254 551

C258 548 264 537 267 525

C269 516 273 481 275 456

L276 447

L270 444

C256 437 252 431 253 423

C253 421 254 418 256 416

C257 414 258 414 268 413

C274 413 279 412 280 412

C280 412 281 409 281 407

C281 402 284 389 286 384

C290 376 298 370 305 371

C306 371 309 371 311 372

C318 374 319 382 314 401

C312 408 310 415 310 417

L309 421

L321 420

C349 419 369 412 382 400

C390 391 393 385 392 374

C392 368 391 365 389 361

C385 352 374 345 360 341

C352 338 326 338 313 341

C269 350 236 381 220 428

C202 483 211 542 238 552

C244 554 250 554 254 551

Z

"/>

<path fill="#757575" stroke="none" d="
M406 801

C380 800 365 798 349 795

C340 793 331 791 329 791

C324 790 301 783 291 779

C286 777 280 775 278 774

C269 770 240 756 230 749

C202 731 186 718 165 698

C128 661 100 617 82 568

C73 543 65 509 61 477

C60 462 60 423 62 407

C69 351 82 310 109 262

C112 258 115 252 117 250

C118 249 119 246 120 245

C127 234 146 210 161 194

C171 185 176 179 198 161

C209 151 236 134 258 124

C273 116 300 105 303 104

C303 104 309 103 315 101

C329 97 361 90 380 88

C398 86 443 86 459 89

C504 96 535 106 569 122

C581 128 603 141 605 142

C606 143 610 146 615 149

C631 159 638 166 659 186

C682 208 707 239 720 262

C728 276 735 290 736 293

C736 294 738 299 741 303

C743 307 745 313 745 315

C746 316 748 322 750 327

C752 332 754 338 754 339

C754 341 755 345 756 349

C760 360 762 372 763 377

C763 380 764 384 764 387

C770 417 771 460 765 494

C764 501 763 509 763 512

C763 514 761 523 758 531

C756 539 754 547 754 548

C754 549 752 554 750 559

C749 563 747 569 746 573

C740 588 721 626 713 637

C712 638 708 644 705 649

C692 669 664 699 645 715

C640 719 635 724 633 725

C626 732 601 748 587 756

C574 763 553 774 551 774

C550 774 549 774 549 774

C548 776 512 788 500 791

C469 798 462 799 446 800

C424 801 414 801 406 801

Z

M451 770

C462 769 479 765 489 763

C498 761 522 754 529 751

C533 749 537 748 538 748

C539 748 547 744 557 739

C612 711 654 673 688 621

C698 605 717 567 719 560

C719 559 721 554 722 550

C726 541 734 509 735 499

C738 484 739 467 739 444

C739 411 737 393 731 368

C729 363 728 357 728 355

C728 354 726 348 723 341

C721 335 719 329 719 328

C719 327 718 325 717 323

C716 321 714 317 712 313

C709 303 703 292 697 281

C690 270 675 247 671 243

C669 241 665 236 662 232

C647 213 616 185 596 172

C591 169 585 165 582 163

C576 159 564 152 557 149

C553 148 548 145 545 143

C542 142 537 140 535 139

C533 138 527 136 522 134

C516 132 510 130 508 130

C483 123 476 121 466 120

C450 118 427 116 415 116

C402 115 377 118 365 120

C361 121 355 122 352 122

C349 122 341 124 334 126

C328 128 320 130 319 131

C317 131 311 133 307 134

C303 136 297 138 295 139

C291 140 279 146 271 150

C226 173 187 205 159 242

C155 247 152 251 151 252

C151 252 149 255 146 260

C131 282 118 307 109 332

C104 345 95 379 94 388

C94 391 93 398 92 405

C89 421 89 467 92 483

C93 489 94 496 94 500

C94 503 96 510 98 517

C99 524 101 532 103 537

C104 541 106 548 108 553

C110 558 112 562 112 563

C111 565 132 607 133 609

C134 609 136 612 137 615

C141 622 148 632 150 634

C151 635 152 637 153 638

C154 640 159 646 164 653

C185 678 214 704 245 723

C266 737 298 751 320 757

C324 759 329 760 331 761

C343 765 377 770 397 772

C407 773 439 772 451 770

Z

M482 594

C470 590 458 579 451 564

C448 559 446 556 446 556

C441 558 426 565 421 567

C402 573 384 574 374 570

C364 565 354 551 348 533

C345 523 342 510 337 490

C331 458 325 450 311 450

L305 450

L303 465

C294 520 290 541 282 558

C272 578 260 587 243 587

C210 587 184 556 175 506

C172 492 173 465 175 449

C187 385 231 333 291 314

C309 307 318 306 341 306

C360 306 362 306 371 309

C388 313 401 320 411 330

C419 337 424 345 428 355

C430 363 431 365 430 374

C430 386 428 393 422 402

C418 409 406 422 398 427

C386 435 367 441 351 444

C338 445 338 445 344 448

C352 453 357 457 362 464

C370 474 374 485 380 511

C383 524 386 531 389 536

C392 539 392 539 400 539

C405 539 409 538 415 536

C423 532 436 525 436 523

C436 522 435 516 434 510

C421 436 438 369 477 327

C492 312 506 303 524 297

C537 292 547 291 564 292

C596 293 617 302 635 320

C642 327 645 331 648 338

C653 348 655 356 656 367

C658 389 649 410 632 427

C618 441 600 451 576 456

L566 458

L565 463

C565 466 564 479 564 493

C563 515 562 518 560 529

C551 561 534 584 512 593

C504 595 488 596 482 594

Z

M505 559

C514 555 521 540 525 519

C526 508 528 481 528 467

L529 460

L524 458

C515 455 504 449 500 445

C497 443 495 440 495 438

C493 432 493 422 495 418

C497 413 500 413 512 419

C528 427 526 428 527 412

C529 389 534 375 543 367

C550 360 561 358 569 361

C577 365 578 368 572 393

C570 403 567 415 567 418

L566 424

L571 423

C590 420 610 407 617 393

C620 386 620 386 620 374

C620 363 620 362 617 355

C609 339 592 329 567 326

C542 324 525 329 508 344

C488 364 475 396 470 435

C469 450 470 500 472 515

C475 535 479 547 485 555

C490 562 497 563 505 559

Z

M254 551

C258 548 264 537 267 525

C269 516 274 481 275 456

L276 447

L268 443

C255 435 252 431 253 423

C254 415 256 414 268 413

C274 413 279 412 280 412

C280 412 281 409 281 407

C281 402 284 389 286 384

C291 375 300 370 308 371

C319 373 320 381 313 404

C308 421 308 421 317 421

C334 421 354 416 367 410

C376 406 386 397 389 390

C393 383 394 370 391 363

C386 354 378 347 364 342

C356 339 355 339 339 339

C325 339 319 340 313 341

C287 346 264 360 248 378

C232 396 220 423 215 450

C207 489 211 524 225 542

C233 552 246 556 254 551

Z

"/>

<path fill="#5b5b5b" stroke="none" d="
M407 801

C369 800 342 795 307 784

C298 781 288 778 285 776

C282 775 278 773 277 773

C271 772 239 755 233 750

C231 750 225 746 220 742

C214 738 208 734 206 732

C204 731 197 726 191 721

C159 695 123 652 104 617

C102 612 100 608 99 607

C94 597 79 561 77 553

C77 552 75 545 73 537

C63 502 58 460 60 426

C63 384 71 348 86 312

C91 298 98 283 101 278

C102 276 105 271 108 266

C113 256 130 230 134 226

C135 224 139 219 143 215

C155 199 174 181 199 160

C207 154 232 138 243 131

C253 126 278 113 279 114

C280 114 284 112 290 110

C309 102 343 93 371 89

C379 88 390 87 415 87

C451 87 460 88 486 94

C492 95 498 97 498 97

C499 97 506 99 514 101

C522 103 529 105 529 105

C530 105 532 106 535 107

C537 108 544 111 549 113

C560 118 586 131 597 138

C628 156 657 181 681 209

C686 214 690 219 690 220

C694 222 716 254 724 269

C727 275 731 284 734 289

C737 295 740 302 742 305

C743 309 745 312 745 313

C745 313 746 318 749 324

C751 329 753 336 753 338

C754 340 756 348 758 355

C760 362 762 370 762 372

C762 374 763 381 764 388

C768 408 769 419 769 444

C769 469 768 479 764 501

C763 507 762 514 762 516

C761 523 750 562 749 564

C748 565 745 571 745 574

C745 576 744 578 743 579

C742 581 739 587 737 593

C731 605 720 627 714 635

C711 638 710 641 710 642

C710 643 698 658 696 661

C695 662 691 667 688 672

C673 691 634 727 613 740

C610 742 604 746 600 748

C590 755 564 768 551 774

C530 783 493 793 471 797

C458 799 422 801 407 801

Z

M447 771

C481 766 511 759 530 750

C533 749 535 749 536 749

C537 749 553 741 560 737

C562 736 567 734 571 732

C574 730 579 727 582 725

C585 723 590 720 595 717

C616 703 648 674 664 654

C668 648 673 643 674 642

C676 640 692 616 696 609

C701 600 710 581 713 575

C714 571 716 567 717 565

C719 560 728 532 729 529

C729 527 731 520 732 514

C734 507 736 498 736 494

C740 473 740 439 738 414

C735 370 719 320 698 283

C695 279 694 275 694 275

C694 274 674 245 671 243

C670 241 667 238 664 234

C654 222 641 209 631 200

C626 195 619 189 616 186

C605 177 574 157 558 149

C554 148 548 145 544 143

C537 140 527 136 515 132

C504 128 478 121 470 121

C466 120 457 119 450 118

C432 116 397 115 380 118

C373 119 363 120 359 121

C354 121 345 123 338 125

C331 127 323 129 321 130

C318 130 315 131 313 132

C311 133 306 135 300 137

C290 140 281 145 270 150

C259 156 250 161 249 162

C248 163 243 166 238 169

C227 176 206 192 193 204

C184 212 168 229 162 238

C160 241 157 244 156 245

C154 246 143 263 134 278

C132 281 118 307 118 308

C118 308 117 311 116 314

C111 326 109 332 104 347

C100 359 94 387 93 393

C93 396 92 403 91 408

C90 420 90 468 91 480

C92 485 93 491 93 494

C95 511 108 557 117 575

C118 578 119 581 119 581

C118 581 132 607 134 610

C135 612 138 617 141 621

C144 625 148 631 150 634

C168 657 176 667 186 677

C199 690 223 709 235 717

C239 720 245 724 248 725

C251 727 256 731 261 733

C265 735 269 737 271 738

C272 739 278 741 283 744

C319 760 352 768 398 772

C405 773 438 772 447 771

Z

M481 594

C470 590 459 580 451 565

C449 561 446 557 446 556

C446 556 442 557 438 559

C428 565 411 570 401 572

C367 577 353 560 340 501

C334 471 331 462 326 456

C322 451 319 450 311 450

L305 450

L303 461

C295 517 292 530 286 547

C277 573 264 585 246 586

C215 588 189 563 178 521

C174 504 173 495 174 473

C174 459 175 451 176 444

C192 370 249 316 320 307

C347 304 370 306 389 316

C433 336 444 381 413 415

C398 431 370 443 342 445

L338 445

L343 447

C361 457 370 472 378 505

C384 527 386 533 391 537

C394 540 399 540 407 538

C414 537 429 529 433 526

L436 523

L435 516

C430 493 428 450 432 428

C439 384 454 351 479 325

C501 303 523 293 553 292

C585 290 614 299 633 317

C646 330 653 344 656 362

C658 377 654 396 645 410

C631 433 606 450 574 456

L565 458

L564 487

C563 508 562 517 561 524

C553 560 534 585 511 593

C502 596 489 596 481 594

Z

M504 560

C519 553 527 527 528 480

L529 460

L519 456

C507 451 499 445 496 441

C493 436 493 420 496 417

C497 415 499 415 500 415

C501 415 506 417 512 419

C517 422 523 425 525 425

L527 426

L528 412

C529 390 534 375 544 366

C554 357 570 357 575 367

C576 368 577 370 577 371

C577 372 574 381 572 392

C570 403 567 414 567 418

L566 424

L570 423

C578 422 590 418 596 414

C617 401 626 380 618 359

C612 339 591 327 560 326

C538 325 523 330 508 345

C495 357 486 373 479 395

C471 416 470 432 470 466

C470 504 472 526 479 544

C485 559 493 565 504 560

Z

M253 552

C255 550 258 548 259 546

C262 540 267 527 269 517

C271 508 275 460 275 452

L276 447

L267 442

C255 435 254 433 254 425

C254 420 254 418 256 416

C257 414 258 413 265 413

C270 413 275 413 277 413

C280 412 281 412 281 409

C281 404 283 391 285 386

C288 381 293 375 297 373

C298 372 302 372 306 372

C314 372 317 374 317 381

C318 386 317 389 312 409

C310 415 309 421 310 421

C311 422 335 420 345 418

C354 415 367 411 373 407

C380 403 387 395 390 389

C400 367 386 346 357 340

C349 338 331 338 320 340

C260 348 219 397 212 469

C207 508 217 542 236 551

C242 554 249 554 253 552

Z

"/>

<path fill="#494949" stroke="none" d="
M400 800

C365 799 338 794 311 785

C304 783 297 781 295 780

C284 777 239 756 234 751

C233 750 229 748 224 745

C216 740 200 729 188 718

C170 704 150 682 135 663

C131 658 128 653 127 652

C126 651 122 645 118 639

C114 632 110 626 109 626

C109 625 107 621 104 616

C102 612 100 608 99 607

C99 607 98 605 97 602

C95 599 93 594 91 590

C90 587 87 582 86 579

C86 576 83 571 82 566

C80 562 78 557 78 556

C78 555 76 550 75 545

C73 540 71 533 71 530

C70 527 69 522 68 520

C58 471 57 424 67 377

C68 372 69 366 69 364

C69 361 75 340 77 337

C77 337 78 334 78 333

C79 326 92 295 98 283

C99 281 102 276 104 271

C108 264 122 242 127 235

C147 208 169 184 191 167

C197 163 203 157 206 155

C208 153 215 149 221 145

C226 142 232 138 232 137

C235 135 275 115 278 115

C278 115 281 113 285 112

C288 110 297 107 304 105

C337 94 361 89 394 88

C429 86 462 88 490 95

C495 96 502 98 505 98

C513 100 530 106 541 110

C546 113 551 115 552 115

C553 114 573 124 585 131

C597 137 625 156 630 160

C631 161 636 165 640 169

C661 185 691 218 706 241

C710 247 714 253 714 253

C715 254 716 256 717 258

C729 279 732 285 738 297

C741 304 744 311 744 312

C744 312 746 317 748 322

C750 327 752 333 752 335

C753 337 755 345 757 351

C759 358 761 366 761 368

C761 370 763 378 764 385

C768 408 769 419 769 445

C769 471 768 480 763 507

C761 522 752 557 749 563

C748 565 746 570 744 576

C742 581 739 587 738 590

C729 609 721 624 715 634

C712 638 710 642 710 642

C710 643 700 656 694 664

C677 686 655 707 637 721

C632 726 625 731 623 733

C621 735 616 738 613 740

C610 742 604 746 601 748

C580 761 548 776 521 785

C490 794 464 799 434 800

C426 800 419 801 417 801

C415 801 407 801 400 800

Z

M450 770

C473 767 478 766 488 764

C493 762 500 760 504 759

C507 758 510 758 511 758

C512 758 518 755 524 753

C530 751 536 749 536 749

C536 749 540 747 544 745

C566 734 575 730 582 725

C585 723 592 718 599 714

C605 710 611 706 613 704

C614 703 619 699 624 695

C651 672 681 636 697 607

C706 590 720 560 721 555

C721 554 723 548 725 541

C729 530 733 514 737 495

C739 483 740 436 738 410

C737 395 730 360 725 344

C723 339 721 333 720 332

C718 324 703 290 700 287

C699 286 697 281 695 277

C692 273 690 268 689 267

C688 266 685 262 682 258

C674 245 669 239 655 224

C643 211 636 204 620 189

C601 173 574 157 547 144

C539 141 532 138 531 138

C531 138 527 136 523 134

C514 131 486 123 476 122

C445 117 426 115 406 116

C391 116 384 117 359 121

C350 122 318 130 313 132

C311 133 305 135 301 137

C289 141 272 149 258 157

C248 162 220 181 215 185

C213 187 209 190 205 193

C202 196 194 203 188 209

C179 218 175 223 159 241

C154 247 138 270 132 281

C124 295 111 323 110 328

C110 329 108 335 105 342

C103 348 101 354 101 356

C101 357 99 365 97 373

C95 381 93 392 92 398

C92 403 91 412 91 418

C90 423 90 435 90 444

C90 453 90 465 91 471

C91 476 92 485 92 490

C93 496 95 507 97 515

C99 523 101 531 101 532

C101 534 105 547 108 554

C110 557 110 560 110 560

C110 560 111 562 112 565

C114 568 116 573 117 576

C126 598 145 629 157 645

C159 646 164 652 168 658

C172 663 181 672 187 678

C199 689 224 710 233 716

C236 718 243 722 247 725

C251 728 258 731 261 733

C265 735 268 736 268 736

C268 737 269 738 272 739

C274 740 280 742 284 745

C289 747 293 749 293 749

C294 749 299 751 306 753

C312 755 317 758 318 758

C319 758 325 759 331 761

C342 764 345 765 364 768

C372 769 385 771 398 772

C406 773 440 771 450 770

Z

M481 594

C471 590 461 581 453 568

C450 563 448 559 448 558

C448 555 445 556 437 560

C413 572 387 576 374 569

C358 561 349 543 339 498

C334 474 331 464 328 458

C323 452 320 450 311 450

L305 450

L304 453

C304 455 302 469 299 484

C295 516 293 527 288 540

C279 570 266 585 247 586

C212 589 184 557 175 506

C173 490 173 459 176 444

C191 377 239 326 302 311

C334 302 365 304 390 316

C431 335 443 378 416 410

C401 429 372 442 341 445

C337 445 337 445 344 448

C352 452 363 463 368 473

C372 481 376 494 380 512

C383 525 387 534 391 537

C397 543 413 539 431 528

C435 525 436 524 436 522

C431 502 429 466 430 444

C434 396 451 355 477 327

C488 316 496 310 509 304

C527 294 543 291 565 292

C585 293 598 296 615 305

C623 309 627 312 634 319

C647 332 653 344 656 362

C658 382 651 405 637 422

C623 438 599 451 574 456

L565 458

L564 486

C563 516 561 524 557 539

C544 575 521 596 493 595

C490 595 484 595 481 594

Z

M504 560

C519 553 527 526 528 479

L529 460

L518 455

C505 450 498 445 496 440

C493 436 493 421 496 417

C497 416 498 415 499 415

C500 415 506 417 512 419

C517 422 523 425 525 425

L528 426

L528 417

C528 402 531 385 536 376

C538 371 544 365 549 362

C552 361 555 360 560 360

C569 360 573 362 575 367

C577 371 577 372 572 394

C569 406 566 418 566 420

C566 423 566 424 568 424

C572 424 582 421 589 417

C604 411 614 401 619 389

C622 381 622 367 619 359

C616 352 612 346 606 341

C588 325 549 320 526 332

C497 346 477 383 471 431

C469 442 469 489 471 503

C475 548 487 568 504 560

Z

M255 550

C259 547 264 537 267 526

C270 517 276 465 276 452

L276 446

L271 444

C263 440 256 435 255 432

C254 431 254 427 254 424

C254 419 254 418 256 416

C258 414 259 413 266 413

C270 413 275 413 277 413

C280 412 281 412 281 409

C281 404 283 391 285 386

C288 381 293 375 297 373

C298 372 302 372 305 372

C317 372 320 378 315 395

C310 417 309 420 309 421

C310 422 332 420 341 418

C362 415 380 405 387 394

C391 388 394 378 393 372

C391 357 377 344 358 340

C350 338 331 338 320 340

C274 346 240 375 222 423

C213 448 209 479 212 504

C215 534 229 553 246 553

C251 553 252 553 255 550

Z

"/>

<path fill="#3b3b3b" stroke="none" d="
M400 800

C366 799 337 794 311 785

C306 784 300 782 297 781

C288 778 274 772 259 765

C211 741 166 704 135 663

C131 658 127 652 126 651

C124 649 120 643 117 638

C114 632 110 627 109 625

C108 624 106 619 103 615

C101 610 99 606 99 606

C97 603 88 584 87 579

C86 576 83 570 82 566

C80 562 78 557 78 556

C78 555 76 550 75 545

C73 540 71 533 71 530

C63 494 61 482 61 468

C61 462 61 458 60 458

C60 458 60 452 60 444

C60 436 60 431 60 431

C61 431 61 426 61 420

C61 409 63 394 67 378

C68 372 69 366 70 362

C70 359 72 353 73 349

C74 345 76 339 77 336

C79 328 85 313 85 312

C86 311 87 310 87 308

C88 305 95 290 98 283

C100 281 102 276 104 272

C106 268 108 264 110 262

C111 260 115 254 119 248

C139 217 165 188 191 167

C197 163 203 157 206 155

C208 153 215 149 220 145

C226 142 232 138 234 137

C238 134 239 133 260 123

C267 119 275 115 277 115

C278 115 282 113 285 111

C292 108 323 98 331 97

C334 96 341 95 348 93

C384 85 446 85 484 94

C491 95 499 97 502 98

C509 99 534 107 544 112

C549 114 554 116 554 116

C556 116 591 134 598 138

C599 139 606 143 611 147

C637 164 669 193 692 222

C694 225 696 227 697 228

C698 229 712 250 718 259

C726 273 741 302 745 314

C746 317 748 322 749 324

C749 326 751 330 752 333

C752 335 754 341 756 347

C759 360 761 365 761 368

C761 370 762 377 764 385

C768 407 769 418 769 445

C769 471 768 485 763 506

C762 512 761 518 761 520

C761 522 759 530 756 538

C754 546 752 553 752 554

C752 556 751 558 750 560

C749 562 747 569 744 575

C742 580 739 588 738 591

C736 594 734 599 732 603

C729 610 720 626 718 628

C718 628 715 634 711 639

C707 645 704 650 703 651

C703 651 699 656 695 662

C674 690 651 712 618 737

C614 740 599 749 590 754

C576 762 539 780 536 780

C535 780 531 781 526 783

C516 787 484 795 473 796

C456 799 447 800 434 800

C426 800 419 801 417 801

C415 801 407 801 400 800

Z

M450 770

C456 769 464 768 469 767

C478 766 504 760 515 756

C523 754 543 746 547 744

C549 742 554 740 558 739

C577 729 604 712 619 699

C641 680 649 672 664 654

C666 651 670 647 671 645

C676 640 691 618 696 609

C705 592 720 561 721 555

C721 554 723 548 725 542

C727 535 730 527 730 526

C730 524 732 517 733 512

C739 487 739 484 739 444

C739 403 738 399 732 374

C731 370 730 364 730 363

C729 358 719 327 715 319

C714 315 713 312 713 312

C713 311 700 286 699 286

C699 285 697 282 695 278

C691 271 684 259 673 245

C667 236 645 212 632 200

C616 185 597 171 574 158

C563 151 531 136 529 136

C528 136 524 135 520 134

C492 122 441 114 406 116

C391 116 362 120 352 121

C342 124 316 131 309 134

C305 135 301 136 301 136

C300 136 298 137 295 138

C276 147 267 151 266 152

C265 153 261 155 257 157

C217 178 174 218 146 259

C141 266 136 275 134 279

C132 282 130 286 129 287

C128 288 120 303 115 317

C106 337 95 374 93 395

C90 417 89 451 90 471

C91 476 92 482 92 484

C92 495 99 525 105 543

C107 550 109 556 109 557

C109 559 111 562 112 565

C113 568 116 573 117 577

C121 586 135 612 138 617

C139 618 143 624 147 631

C151 637 156 643 158 645

C159 647 164 652 168 658

C183 676 215 705 235 717

C239 720 245 724 249 726

C252 728 257 731 261 733

C264 734 268 737 271 738

C278 742 292 748 295 749

C296 749 298 750 299 751

C305 753 320 759 321 759

C322 759 326 760 331 761

C346 766 368 769 398 772

C406 773 440 771 450 770

Z

M484 594

C476 592 472 589 465 584

C459 578 452 568 448 560

C447 558 446 556 446 556

C446 556 441 558 435 560

C412 572 388 575 375 570

C369 567 365 564 360 557

C352 546 347 531 338 493

C331 457 326 450 311 450

L305 450

L304 453

C304 455 301 470 299 487

C292 531 286 552 276 567

C268 580 259 585 246 586

C212 589 184 557 175 506

C172 489 173 460 177 443

C191 381 233 333 290 314

C337 298 386 305 413 332

C431 350 436 375 424 398

C420 406 413 415 405 421

C391 433 367 442 345 444

L337 445

L344 448

C352 453 363 463 368 473

C372 482 375 489 379 508

C383 525 386 533 391 537

C397 543 415 538 432 527

C434 526 436 524 436 524

C436 524 435 518 434 510

C428 472 429 437 437 404

C453 341 493 299 543 292

C560 290 583 292 599 298

C627 307 646 326 654 352

C655 358 656 362 656 371

C656 411 626 443 580 455

C573 456 566 458 566 458

C565 458 565 466 564 482

C563 518 560 533 551 552

C541 573 527 587 511 593

C503 595 490 596 484 594

Z

M504 560

C508 558 514 552 517 546

C524 532 529 503 529 472

L529 460

L518 455

C505 450 498 445 496 440

C493 436 493 421 496 417

C497 416 498 415 499 415

C500 415 506 417 512 419

C517 422 523 425 525 425

L528 426

L528 417

C528 403 531 386 536 376

C538 371 544 365 549 362

C552 361 555 360 560 360

C569 360 573 362 575 367

C577 371 577 372 572 392

C569 403 567 415 567 418

C566 423 566 424 568 424

C573 424 586 419 594 415

C618 403 628 378 617 355

C612 343 597 333 581 328

C570 326 549 325 540 327

C509 333 484 365 474 411

C470 430 469 440 470 474

C470 506 471 518 475 533

C481 556 491 565 504 560

Z

M255 550

C259 546 265 536 268 525

C270 516 275 464 275 452

L276 446

L271 444

C264 441 256 435 254 431

C254 430 253 426 254 423

C254 415 256 414 266 414

C271 413 276 413 277 413

C280 412 280 412 281 405

C282 395 286 384 290 379

C295 373 298 372 305 372

C310 372 312 372 314 374

C317 376 317 377 317 384

C317 389 316 394 313 403

C311 410 310 416 309 418

L309 421

L318 421

C350 420 377 409 387 394

C396 380 395 364 383 352

C373 343 359 339 339 339

C288 338 249 364 227 411

C204 460 205 525 229 546

C235 552 239 553 246 553

C251 553 252 553 255 550

Z

"/>

<path fill="#292929" stroke="none" d="
M399 800

C367 799 335 793 310 785

C305 783 300 782 297 781

C289 778 269 770 256 763

C244 757 220 743 216 740

C215 739 211 736 207 733

C180 714 150 685 130 656

C121 644 118 640 114 633

C112 629 110 625 109 624

C107 623 88 585 88 583

C88 581 84 572 83 571

C83 570 79 560 79 558

C79 557 77 551 75 544

C72 537 70 530 70 528

C70 526 68 518 67 510

C63 491 61 480 61 468

C61 462 61 458 61 458

C60 458 60 452 60 444

C60 436 60 431 61 431

C61 431 62 426 62 419

C62 407 63 393 67 376

C68 369 70 361 71 358

C71 355 73 348 75 341

C78 335 79 330 79 330

C79 330 83 319 85 312

C87 310 88 307 88 305

C88 304 90 300 92 296

C94 291 96 287 97 285

C97 284 98 282 99 281

C100 281 102 276 104 271

C107 267 109 263 109 263

C110 262 111 260 113 258

C116 251 124 238 127 236

C128 235 131 230 135 226

C157 195 192 163 226 141

C265 117 300 103 350 93

C382 86 449 86 481 93

C486 94 495 96 501 97

C512 100 536 108 544 111

C547 113 552 115 554 115

C561 118 590 133 601 140

C624 155 642 169 659 186

C672 198 682 210 695 226

C704 238 717 257 718 259

C718 260 718 260 718 261

C721 262 739 299 744 314

C746 318 748 323 749 325

C750 327 751 329 751 331

C751 333 753 339 755 345

C759 357 760 361 760 365

C760 366 762 373 763 380

C771 422 771 468 763 510

C762 515 760 521 760 523

C760 526 758 532 756 538

C755 543 753 550 752 552

C752 554 749 562 746 569

C744 576 742 582 742 582

C742 582 740 586 738 590

C736 594 734 599 733 602

C721 626 702 655 680 680

C662 701 628 731 605 745

C601 748 596 750 596 751

C590 755 545 777 535 780

C532 781 526 783 521 784

C494 793 463 799 434 800

C427 800 419 801 418 801

C416 801 407 801 399 800

Z

M436 771

C465 769 491 764 515 756

C523 754 543 746 547 744

C549 743 554 740 559 738

C563 736 567 734 568 734

C568 733 573 730 579 727

C584 724 589 721 590 721

C590 720 596 716 602 712

C613 704 617 701 636 684

C669 654 697 614 715 570

C721 556 729 532 730 524

C731 521 732 513 734 507

C739 485 739 476 739 445

C740 413 739 404 734 383

C733 375 731 367 731 365

C729 357 721 330 715 318

C714 315 712 312 712 311

C711 308 701 287 697 282

C688 266 685 261 685 261

C684 260 682 257 679 253

C671 242 662 229 656 224

C653 221 651 218 650 217

C649 217 643 210 635 203

C621 190 613 183 600 174

C596 171 592 169 592 169

C591 168 583 163 582 162

C582 162 579 161 576 159

C571 156 551 145 550 146

C550 146 545 143 540 141

C535 139 530 137 529 137

C528 137 526 136 523 135

C516 131 491 124 475 121

C443 114 386 115 353 121

C334 125 326 128 303 136

C292 139 272 149 261 155

C255 158 249 161 247 162

C245 164 242 165 242 166

C241 167 236 170 231 174

C216 183 204 194 186 211

C178 219 163 236 158 242

C151 251 136 274 133 280

C132 283 130 285 130 286

C129 286 118 309 118 310

C117 310 116 314 114 318

C110 327 100 356 97 371

C92 394 89 417 90 444

C90 457 92 490 93 497

C98 519 100 530 104 542

C107 549 109 556 109 557

C109 559 111 562 112 565

C113 568 115 573 116 576

C119 582 127 598 131 605

C133 608 134 611 135 612

C136 615 155 642 158 646

C160 647 161 649 161 650

C161 650 163 651 164 653

C165 654 170 659 174 664

C182 674 197 688 208 697

C211 699 214 702 216 704

C220 708 250 727 259 732

C277 742 287 746 300 751

C305 753 311 755 311 755

C312 756 318 758 323 759

C328 760 337 763 342 764

C351 766 355 767 380 770

C400 773 416 773 436 771

Z

M485 594

C472 592 460 581 451 565

C449 560 446 556 446 556

C446 556 441 558 435 560

C423 566 411 570 399 572

C380 574 370 570 360 557

C352 546 347 531 339 497

C333 468 330 459 324 453

C321 450 320 450 313 450

L305 449

L304 453

C304 454 301 470 299 486

C296 503 293 522 291 528

C284 560 272 579 256 584

C249 587 234 586 226 584

C195 572 174 530 174 479

C173 463 175 453 178 437

C191 386 224 344 271 322

C291 312 306 308 329 306

C351 304 370 307 387 315

C425 331 440 367 424 399

C411 423 384 439 347 444

L337 445

L343 448

C350 452 360 461 365 469

C371 478 373 485 378 506

C384 527 386 533 391 537

C394 540 394 540 401 539

C409 539 418 535 427 530

C437 524 437 525 435 516

C430 492 429 454 432 430

C440 371 469 323 511 302

C529 293 548 290 571 292

C599 295 618 303 635 320

C649 334 656 350 656 371

C656 385 653 394 648 405

C635 431 607 450 573 456

L565 458

L564 478

C563 505 562 518 559 530

C548 574 517 601 485 594

Z

M504 560

C508 559 514 552 517 546

C524 532 528 504 528 473

L529 460

L520 456

C508 451 500 446 497 442

C495 439 495 437 495 429

C495 418 496 415 499 415

C500 415 506 417 512 419

C517 422 523 425 525 425

L527 426

L528 413

C529 386 537 369 549 362

C554 360 566 359 570 362

C577 365 577 370 571 395

C569 406 566 416 566 419

L566 425

L568 424

C598 417 615 405 620 384

C623 374 621 362 616 352

C610 342 596 332 581 328

C570 325 549 325 539 327

C505 335 479 372 471 427

C468 450 468 492 472 518

C477 551 489 567 504 560

Z

M255 551

C261 545 266 532 269 517

C271 510 275 463 276 454

L276 446

L269 443

C255 436 253 432 254 423

C254 415 255 414 269 414

L280 413

L281 404

C284 386 289 376 298 373

C302 371 311 371 313 373

C316 375 318 381 317 386

C317 389 315 397 313 405

C310 413 309 420 309 421

C309 422 327 421 339 419

C365 414 385 403 390 388

C394 379 394 372 391 365

C387 353 376 344 360 340

C350 338 329 338 316 340

C271 348 238 378 221 426

C205 472 207 524 227 545

C233 551 238 553 246 553

C251 553 252 553 255 551

Z

"/>

<path fill="#191919" stroke="none" d="
M399 800

C390 800 378 799 372 798

C365 797 357 796 353 795

C336 793 297 782 277 773

C264 767 244 757 241 755

C239 754 237 753 236 752

C234 752 218 742 218 741

C217 740 214 738 211 736

C201 729 185 717 182 713

C181 711 179 710 178 710

C177 710 148 679 147 677

C147 676 146 676 145 676

C143 676 123 647 112 629

C105 618 89 586 88 583

C88 581 84 572 83 571

C82 569 71 535 71 531

C71 529 70 524 69 519

C65 504 63 488 62 473

C62 464 61 457 60 457

C59 456 59 431 60 431

C61 430 62 423 62 415

C63 400 66 380 69 366

C70 363 71 358 71 357

C72 352 82 319 86 311

C87 308 88 305 88 306

C88 306 90 301 92 296

C95 291 97 286 97 285

C97 284 98 283 99 282

C100 281 102 276 104 272

C109 262 122 242 126 237

C127 235 131 230 135 226

C152 202 178 176 204 157

C208 154 213 151 214 150

C216 148 230 139 234 137

C240 132 267 119 281 113

C300 105 320 99 347 93

C372 88 421 86 452 89

C472 91 477 92 497 97

C511 100 541 110 544 111

C545 112 548 113 551 114

C557 117 576 126 587 132

C625 153 665 187 693 224

C696 227 699 231 700 233

C701 234 702 236 704 238

C707 241 720 262 725 272

C733 287 741 305 742 308

C742 308 743 311 744 314

C746 316 747 319 747 319

C747 319 747 322 748 324

C750 326 751 330 751 331

C751 333 753 338 755 344

C760 362 769 411 768 423

C768 426 768 429 769 429

C770 430 770 458 769 459

C768 459 768 462 768 464

C769 478 760 529 754 547

C753 550 751 554 751 556

C751 559 750 562 745 572

C744 574 743 576 743 578

C743 579 740 585 738 590

C726 617 713 639 693 665

C677 686 652 711 631 726

C624 732 616 737 615 739

C607 745 576 762 552 773

C536 780 500 791 483 794

C467 797 446 800 434 800

C426 800 419 801 417 801

C415 801 407 801 399 800

Z

M453 770

C505 764 555 745 598 715

C616 702 621 698 636 684

C643 677 650 671 651 671

C651 670 651 670 651 669

C651 669 653 666 655 664

C664 656 671 647 679 635

C682 631 684 628 685 628

C685 627 686 627 686 626

C686 625 686 625 687 625

C687 625 688 624 688 624

C688 623 689 621 690 618

C695 611 714 576 714 574

C714 574 715 571 716 568

C717 565 719 562 719 562

C719 561 719 559 721 557

C722 555 722 552 722 551

C722 550 723 548 724 545

C727 538 731 525 731 522

C731 520 732 514 734 508

C739 483 740 475 740 444

C740 426 740 412 739 407

C736 389 731 365 728 355

C726 348 724 340 723 337

C719 325 705 294 697 282

C696 280 693 274 690 269

C687 264 684 259 683 258

C682 258 680 255 678 252

C660 225 632 197 606 178

C596 171 586 165 579 161

C569 155 552 146 549 145

C548 145 543 142 539 140

C534 138 529 136 527 136

C525 135 524 135 523 134

C520 132 484 122 468 120

C438 115 382 115 355 121

C335 125 329 127 306 135

C293 139 271 149 257 157

C241 166 213 185 205 193

C194 203 169 228 169 228

C170 229 168 230 167 231

C165 233 155 246 148 255

C147 258 145 260 144 260

C144 260 144 261 144 261

C144 262 141 265 139 269

C137 273 135 276 135 277

C135 277 133 280 132 282

C129 286 118 308 118 310

C117 310 116 314 114 318

C110 326 100 358 100 361

C100 362 98 367 97 372

C91 394 90 405 90 437

C90 481 90 485 97 514

C100 528 110 560 115 574

C119 583 127 600 129 602

C130 602 132 605 133 609

C136 614 153 639 158 647

C166 656 185 676 193 684

C225 713 248 728 284 745

C295 749 297 750 303 752

C306 753 308 754 309 755

C311 756 346 765 357 767

C363 768 387 771 397 772

C407 773 440 772 453 770

Z

M484 594

C470 591 459 580 450 562

C448 558 446 556 446 556

C446 556 443 557 440 558

C422 567 406 572 391 572

C378 572 373 570 365 563

C354 553 348 537 340 498

C334 474 332 467 329 460

C324 451 321 450 312 450

L305 450

L304 453

C304 455 302 468 299 483

C297 498 294 515 293 522

C287 552 277 571 264 580

C250 589 229 588 213 577

C195 564 182 542 176 509

C173 497 173 462 176 449

C183 413 198 383 223 357

C245 334 271 319 301 311

C315 307 325 306 341 306

C357 306 366 307 380 312

C422 326 442 365 424 398

C411 423 384 439 347 444

L337 445

L343 448

C350 452 359 460 364 468

C370 476 374 486 378 506

C384 527 386 533 390 537

C394 540 394 540 401 539

C409 539 418 536 427 530

C438 524 437 526 435 512

C431 494 430 483 430 462

C430 441 431 430 435 412

C446 361 474 320 512 302

C530 293 548 290 570 292

C614 296 645 319 654 352

C656 362 656 379 654 388

C647 418 622 442 589 452

C583 454 576 456 572 457

L565 458

L564 478

C563 514 561 530 554 547

C539 581 511 601 484 594

Z

M504 560

C514 556 522 539 526 513

C527 507 528 493 528 481

L529 460

L523 458

C507 450 499 445 496 440

C494 435 494 420 496 417

C498 414 500 414 509 418

C519 423 524 426 526 426

C527 426 528 424 528 418

C528 408 530 392 533 384

C535 376 540 368 546 365

C555 358 569 358 574 365

C576 368 576 376 571 395

C569 405 566 416 566 419

L565 424

L569 424

C583 421 599 414 608 405

C630 383 624 348 596 334

C584 328 576 326 560 326

C548 325 545 326 538 327

C504 336 479 373 471 427

C467 457 469 511 476 535

C477 542 482 552 485 556

C489 561 497 563 504 560

Z

M255 550

C261 545 267 531 269 517

C271 509 275 463 276 454

L276 446

L268 442

C264 440 259 437 257 434

C253 430 253 430 254 424

C254 415 255 414 269 414

L280 413

L281 404

C283 389 287 380 294 375

C297 373 299 372 305 372

C311 371 312 372 314 374

C319 379 319 383 312 409

C310 415 309 420 309 421

C308 422 326 421 338 419

C364 415 383 404 390 390

C392 384 393 382 393 375

C393 368 393 366 390 362

C382 346 365 339 339 339

C317 339 300 342 282 351

C245 370 219 411 212 463

C207 499 213 530 227 545

C233 551 238 553 246 553

C251 553 252 553 255 550

Z

"/>

<path fill="#000000" stroke="none" d="
M398 800

C378 799 350 795 333 791

C325 789 317 787 314 786

C310 785 304 783 299 781

C293 779 289 778 288 778

C286 778 248 759 245 757

C244 756 240 754 236 752

C232 750 228 747 226 746

C225 745 222 743 220 742

C203 731 198 727 183 713

C165 697 138 669 138 667

C139 666 138 666 138 666

C135 666 107 622 99 607

C99 606 97 601 94 596

C92 590 89 586 89 585

C89 585 88 582 87 579

C82 568 73 540 72 535

C72 533 71 528 70 524

C66 508 61 478 61 462

C61 460 61 458 61 457

C60 456 60 438 62 423

C62 416 63 406 63 402

C64 388 71 356 76 339

C79 332 81 326 81 324

C81 322 83 319 84 316

C85 313 87 309 88 306

C89 303 91 298 93 294

C96 289 99 283 101 280

C102 276 105 272 105 270

C108 265 118 248 122 243

C124 240 129 234 133 228

C143 213 164 191 184 173

C196 162 222 143 236 136

C240 134 243 132 244 131

C245 130 291 109 293 109

C294 109 297 107 302 106

C314 101 353 92 369 90

C417 85 459 87 501 98

C520 103 539 109 554 116

C556 117 559 118 563 120

C566 121 569 122 570 123

C570 124 574 126 579 128

C583 130 588 133 591 134

C597 138 608 145 611 147

C612 148 616 150 619 153

C643 169 675 200 693 223

C695 226 699 232 702 235

C704 239 707 242 707 243

C707 243 707 244 708 244

C708 244 709 244 709 245

C709 246 709 246 709 247

C711 247 722 267 731 284

C735 291 742 305 742 306

C742 307 743 312 746 317

C748 323 750 328 750 329

C750 330 752 337 754 344

C757 350 758 357 758 358

C758 359 760 365 761 371

C765 388 766 398 767 414

C767 421 768 428 768 429

C769 430 769 458 768 459

C768 460 767 466 767 474

C766 489 765 501 761 516

C760 520 759 526 759 528

C759 529 758 533 757 535

C753 549 749 563 745 572

C743 577 741 582 741 583

C741 583 734 599 731 604

C731 605 729 609 727 613

C725 617 721 622 719 626

C718 629 715 632 715 634

C714 635 712 637 711 638

C710 639 709 641 708 643

C704 650 686 675 685 675

C684 675 683 675 683 676

C683 678 656 705 647 713

C644 716 641 718 640 719

C639 720 634 725 628 729

C623 733 616 737 615 738

C610 742 595 752 594 752

C594 752 591 753 589 754

C585 757 568 766 553 772

C535 781 496 793 480 795

C476 795 471 796 471 796

C466 797 445 800 434 800

C426 800 419 801 417 801

C415 801 407 801 398 800

Z

M449 770

C466 769 473 768 488 764

C503 760 521 755 523 753

C524 753 526 752 528 751

C531 751 537 749 541 746

C546 744 550 743 550 743

C552 743 571 732 576 729

C579 727 582 726 582 726

C582 726 585 724 589 721

C592 719 596 717 597 716

C603 712 622 698 630 690

C647 674 659 662 670 647

C674 642 678 637 679 637

C679 636 680 636 680 635

C680 635 681 632 683 629

C685 626 689 621 691 618

C693 614 695 611 696 610

C696 610 697 609 697 608

C697 606 698 605 699 604

C703 599 722 557 723 550

C723 549 725 544 726 539

C730 528 732 520 735 503

C740 478 740 473 740 444

C740 415 739 408 735 386

C734 379 732 371 732 369

C732 367 730 359 727 352

C725 346 723 339 723 338

C723 336 721 331 719 327

C717 322 715 317 715 316

C715 316 713 311 710 306

C708 302 706 297 706 297

C706 296 704 293 702 289

C699 285 698 281 698 281

C698 280 697 280 697 280

C696 280 696 279 696 278

C696 278 694 276 693 274

C687 264 681 255 680 253

C679 252 679 252 678 252

C678 252 678 251 678 250

C677 249 677 249 677 248

C676 248 672 244 668 238

C652 218 633 199 613 184

C607 180 602 175 601 174

C599 173 594 169 588 166

C583 163 576 159 575 158

C570 155 553 146 542 141

C532 137 503 127 498 126

C496 126 490 124 484 123

C464 118 438 116 415 115

C364 115 310 128 267 151

C252 160 233 171 232 172

C231 173 229 175 226 177

C207 189 193 203 173 223

C167 230 154 247 150 253

C149 255 148 256 147 257

C143 260 121 300 117 311

C116 314 115 316 114 317

C113 319 108 333 107 335

C107 336 105 342 103 348

C101 354 99 360 99 362

C99 364 99 365 98 365

C98 365 98 366 98 367

C98 368 97 374 95 381

C90 402 89 412 90 444

C90 476 91 488 96 510

C97 515 98 520 98 522

C99 527 107 552 112 564

C114 570 117 576 117 576

C116 578 132 608 138 617

C140 620 142 623 142 623

C142 624 142 625 142 625

C143 625 143 625 144 626

C146 631 161 650 166 655

C168 657 170 660 170 660

C169 661 172 663 174 665

C176 667 178 669 179 670

C179 670 181 673 184 676

C187 679 192 683 195 686

C207 697 216 705 228 713

C233 716 238 720 241 722

C244 724 246 725 247 725

C247 725 250 727 253 729

C274 742 310 756 341 764

C360 768 364 769 383 770

C390 771 398 772 400 772

C404 773 439 772 449 770

Z

M486 595

C472 591 460 581 450 563

L446 555

L442 557

C435 561 419 567 409 570

C403 571 397 572 390 572

C378 572 373 570 365 562

C354 551 348 535 339 496

C333 466 329 455 322 451

C320 450 317 450 312 450

C303 449 304 448 302 466

C293 532 285 558 271 574

C261 584 249 588 235 586

C207 581 184 551 176 508

C173 494 173 462 176 447

C180 430 185 416 192 400

C202 382 210 370 225 355

C254 326 288 310 329 306

C353 304 373 308 393 318

C401 322 404 324 412 331

C425 345 431 359 430 376

C429 391 423 403 411 416

C395 431 374 440 347 444

L337 445

L343 448

C353 453 362 463 367 473

C372 482 375 492 379 511

C383 525 387 536 391 538

C393 539 395 540 401 539

C410 539 420 535 430 528

C436 525 437 524 436 521

C431 495 429 454 432 431

C441 361 479 309 531 295

C559 288 596 293 619 308

C629 313 634 318 640 326

C647 334 651 342 654 353

C657 364 656 382 652 394

C642 424 614 447 575 456

L565 458

L564 477

C563 504 562 517 559 529

C549 568 526 593 497 595

C493 595 488 595 486 595

Z

M506 559

C520 551 528 519 528 474

C528 461 528 459 527 459

C520 456 504 448 501 446

C496 441 495 438 495 428

C495 419 496 415 499 415

C500 415 505 417 511 419

C516 422 522 425 524 425

L527 426

L528 414

C529 382 539 364 555 361

C567 358 576 363 576 372

C576 374 574 384 571 394

C567 413 565 425 566 424

C570 424 586 420 592 416

C614 406 625 386 620 364

C618 351 609 340 595 333

C584 328 576 326 560 326

C543 325 537 326 525 332

C490 349 468 399 469 464

C469 516 476 552 489 560

C493 562 501 562 506 559

Z

M253 552

C259 549 265 538 268 522

C270 514 275 471 276 453

L276 447

L268 442

C257 436 254 432 254 425

C254 419 256 415 260 414

C261 414 267 413 271 414

L280 414

L281 407

C283 385 292 371 305 372

C318 372 320 379 313 403

C311 409 309 416 309 418

L308 422

L320 421

C357 419 382 407 390 389

C393 384 393 382 393 375

C393 368 393 366 390 361

C385 351 374 343 359 340

C349 338 319 338 308 341

C265 352 235 382 219 429

C214 446 211 461 211 480

C210 496 211 508 214 519

C220 541 231 554 245 554

C248 554 252 553 253 552

Z

"/>

</svg>

